<?xml version="1.0" standalone="no"?><!DOCTYPE svg PUBLIC "-//W3C//DTD SVG 1.1//EN" "http://www.w3.org/Graphics/SVG/1.1/DTD/svg11.dtd"><svg t="1631625739216" class="icon" viewBox="0 0 1024 1024" version="1.1" xmlns="http://www.w3.org/2000/svg" p-id="38762" xmlns:xlink="http://www.w3.org/1999/xlink" width="200" height="200"><defs><style type="text/css"></style></defs><path d="M272.9 496.9h220.2V276.7c0-114.6-93.2-207.8-207.8-207.8h-12.4c-114.6 0-207.8 93.2-207.8 207.8V289c0 114.6 93.2 207.9 207.8 207.9zM135.1 276.7c0-76 61.8-137.8 137.8-137.8h12.4c76 0 137.8 61.8 137.8 137.8v150.2H272.9c-76 0-137.8-61.8-137.8-137.8v-12.4zM65.2 733.8v12.4C65.2 860.8 158.4 954 273 954h12.4c114.6 0 207.8-93.2 207.8-207.8V526H273c-114.6 0-207.8 93.2-207.8 207.8z m358 12.4c0 76-61.8 137.8-137.8 137.8H273c-76 0-137.8-61.8-137.8-137.8v-12.4c0-76 61.8-137.8 137.8-137.8h150.2v150.2z" p-id="38763" fill="#8a8a8a"></path><path d="M749.5 68.9h-12.4c-114.6 0-207.8 93.2-207.8 207.8V289c0 114.6 93.2 207.8 207.8 207.8h12.4c114.6 0 207.8-93.2 207.8-207.8v-12.4c0-114.5-93.2-207.7-207.8-207.7zM887.3 289c0 76-61.8 137.8-137.8 137.8h-12.4c-76 0-137.8-61.8-137.8-137.8v-12.4c0-76 61.8-137.8 137.8-137.8h12.4c76 0 137.8 61.8 137.8 137.8V289z" p-id="38764" fill="#8a8a8a"></path><path d="M749.5 526H529.3v220.2c0 114.6 93.2 207.8 207.8 207.8h12.4c114.6 0 207.8-93.2 207.8-207.8v-12.4c0-114.6-93.2-207.8-207.8-207.8z m137.8 220.2c0 76-61.8 137.8-137.8 137.8h-12.4c-76 0-137.8-61.8-137.8-137.8V596h150.2c76 0 137.8 61.8 137.8 137.8v12.4z" p-id="38765" fill="#8a8a8a"></path></svg>