<?xml version="1.0" standalone="no"?><!DOCTYPE svg PUBLIC "-//W3C//DTD SVG 1.1//EN" "http://www.w3.org/Graphics/SVG/1.1/DTD/svg11.dtd"><svg t="1631620573573" class="icon" viewBox="0 0 1024 1024" version="1.1" xmlns="http://www.w3.org/2000/svg" p-id="16108" xmlns:xlink="http://www.w3.org/1999/xlink" width="200" height="200"><defs><style type="text/css"></style></defs><path d="M638 232H386c-23.2 0-42 18.8-42 42s18.8 42 42 42h252c23.2 0 42-18.8 42-42s-18.8-42-42-42zM792 64H232c-61.9 0-112 50.1-112 112v672c0 61.9 50.1 112 112 112h560c61.9 0 112-50.1 112-112V176c0-61.9-50.1-112-112-112z m28 756c0 30.9-25.1 56-56 56H260c-30.9 0-56-25.1-56-56V204c0-30.9 25.1-56 56-56h504c30.9 0 56 25.1 56 56v616zM512 708c-30.9 0-56 25.1-56 56s25.1 56 56 56 56-25.1 56-56-25.1-56-56-56z" fill="#ffffff" p-id="16109"></path></svg>