<?xml version="1.0" standalone="no"?><!DOCTYPE svg PUBLIC "-//W3C//DTD SVG 1.1//EN" "http://www.w3.org/Graphics/SVG/1.1/DTD/svg11.dtd"><svg t="1631617134950" class="icon" viewBox="0 0 1025 1024" version="1.1" xmlns="http://www.w3.org/2000/svg" p-id="8581" xmlns:xlink="http://www.w3.org/1999/xlink" width="200.1953125" height="200"><defs><style type="text/css"></style></defs><path d="M733.28 173.28a194.72 194.72 0 0 1 137.76 332.32l-16 16-57.12 57.6-262.24 261.76a33.76 33.76 0 0 1-48 0l-251.2-251.52-68-68-16-16a194.72 194.72 0 0 1 275.84-275.2l16 16L512 313.92l67.84-67.84 16-16a193.12 193.12 0 0 1 137.6-56.96m0-96A289.12 289.12 0 0 0 528 162.4l-16 16-16-16a290.72 290.72 0 0 0-411.04 0 290.72 290.72 0 0 0 0 411.04l16 16 320 320a129.6 129.6 0 0 0 183.2 0l320-320 16-16a290.72 290.72 0 0 0 0-411.04 289.76 289.76 0 0 0-206.88-85.12z" fill="#ffffff" p-id="8582"></path><path d="M512 601.92a160 160 0 0 1-154.56-118.4 48 48 0 0 1 92.8-24.96 64 64 0 0 0 123.84 0 48 48 0 1 1 92.96 23.84A160 160 0 0 1 512 601.92z" fill="#ffffff" p-id="8583"></path></svg>