<?xml version="1.0" standalone="no"?><!DOCTYPE svg PUBLIC "-//W3C//DTD SVG 1.1//EN" "http://www.w3.org/Graphics/SVG/1.1/DTD/svg11.dtd"><svg t="1631668795828" class="icon" viewBox="0 0 1024 1024" version="1.1" xmlns="http://www.w3.org/2000/svg" p-id="2182" xmlns:xlink="http://www.w3.org/1999/xlink" width="200" height="200"><defs><style type="text/css"></style></defs><path d="M448 96C253.6 96 96 253.6 96 448s157.6 352 352 352 352-157.6 352-352S642.4 96 448 96z m0 64a288 288 0 1 1 0 576 288 288 0 0 1 0-576z" fill="#707070" p-id="2183"></path><path d="M656.512 670.304a32 32 0 0 1 42.144-3.904l3.104 2.56 216.192 203.744a32 32 0 0 1-40.8 49.152l-3.104-2.56-216.192-203.744a32 32 0 0 1-1.344-45.248z" fill="#707070" p-id="2184"></path></svg>