<?xml version="1.0" standalone="no"?><!DOCTYPE svg PUBLIC "-//W3C//DTD SVG 1.1//EN" "http://www.w3.org/Graphics/SVG/1.1/DTD/svg11.dtd"><svg t="1631536962398" class="icon" viewBox="0 0 1024 1024" version="1.1" xmlns="http://www.w3.org/2000/svg" p-id="1671" xmlns:xlink="http://www.w3.org/1999/xlink" width="200" height="200"><defs><style type="text/css"></style></defs><path d="M330.1 818.2m-192 0a192 192 0 1 0 384 0 192 192 0 1 0-384 0Z" fill="#4EEAAB" p-id="1672"></path><path d="M884.8 47.7c-0.1-19.5-16.1-34-34.1-34-4 0-8.2 0.7-12.3 2.3l-371 142.4c-13.3 5.1-22 17.9-21.9 32.1v0.5h-0.1v473.9c-32.1-24.2-71.9-38.7-115.2-38.7-106 0-192 86-192 192s86 192 192 192c101.7 0 184.7-79.2 191.4-179.2h0.6V406L864 274.8c13.3-5.1 22-17.9 21.9-32.1l-1.1-195zM330.1 933.4c-63.5 0-115.2-51.7-115.2-115.2S266.6 703 330.1 703s115.2 51.7 115.2 115.2-51.7 115.2-115.2 115.2z m192.9-610l-0.6-103.8 285.9-109.7 0.6 103.8L523 323.4z" fill="#454563" p-id="1673"></path></svg>