<?xml version="1.0" standalone="no"?><!DOCTYPE svg PUBLIC "-//W3C//DTD SVG 1.1//EN" "http://www.w3.org/Graphics/SVG/1.1/DTD/svg11.dtd"><svg t="1631266465107" class="icon" viewBox="0 0 1024 1024" version="1.1" xmlns="http://www.w3.org/2000/svg" p-id="4070" xmlns:xlink="http://www.w3.org/1999/xlink" width="200" height="200"><defs><style type="text/css"></style></defs><path d="M154.294857 460.580571c-3.986286-9.728-4.571429-19.419429-4.571428-29.696 0-16.018286 10.276571-41.728 20.004571-53.723428-0.585143-14.848 5.705143-45.129143 17.152-54.857143 0-105.728 81.700571-238.848 177.152-284.562286C422.875429 9.728 484.608 0.036571 549.193143 0.036571c50.285714 0 105.142857 11.995429 151.990857 31.414858 134.290286 56.576 164.571429 161.718857 193.133714 296.009142l0.585143 2.852572c16.566857 25.161143 31.414857 54.857143 31.414857 85.723428 0 15.433143-10.276571 30.866286-10.276571 44.580572 0 1.133714 3.437714 5.705143 3.986286 6.838857 49.152 72.557714 93.696 151.442286 93.696 241.700571 0 20.004571-10.861714 89.709714-42.861715 89.709715-22.272 0-46.848-54.272-54.857143-69.156572-0.585143-0.585143-1.133714-0.585143-1.718857-0.585143l-2.852571 2.304c-18.285714 47.433143-38.290286 92.013714-75.446857 127.414858 32.585143 31.414857 85.138286 28.562286 94.866285 82.870857-2.852571 6.290286-1.718857 13.129143-6.290285 19.419428-32.585143 49.152-119.990857 55.442286-172.580572 55.442286-69.705143 0-126.281143-18.285714-192-37.705143-13.714286-3.986286-34.304-1.718857-49.152-3.437714C475.977143 1013.723429 390.838857 1024 341.686857 1024c-43.446857 0-211.419429-2.852571-211.419428-77.129143 0-32 6.838857-41.142857 29.147428-61.696 17.700571-3.437714 30.866286-13.129143 51.419429-14.299428 2.852571 0 5.156571-0.585143 8.009143-1.133715 0.585143-0.585143 1.133714-0.585143 1.133714-2.304l-1.133714-1.718857c-39.424-9.142857-94.866286-108.580571-103.424-149.723428l-2.852572-1.718858c-3.986286 0-5.705143 8.557714-6.838857 11.446858-12.580571 29.147429-42.276571 60.562286-75.446857 64H29.696c-4.571429 0-2.852571-4.571429-6.290286-5.705143-8.009143-18.870857-13.129143-35.986286-13.129143-57.161143 0-114.285714 54.857143-198.838857 144.018286-266.276572z" fill="#ffffff" p-id="4071"></path></svg>