<?xml version="1.0" standalone="no"?><!DOCTYPE svg PUBLIC "-//W3C//DTD SVG 1.1//EN" "http://www.w3.org/Graphics/SVG/1.1/DTD/svg11.dtd"><svg t="1631619735707" class="icon" viewBox="0 0 1024 1024" version="1.1" xmlns="http://www.w3.org/2000/svg" p-id="14393" xmlns:xlink="http://www.w3.org/1999/xlink" width="200" height="200"><defs><style type="text/css"></style></defs><path d="M517.12 936.96c-225.28 0-409.6-184.32-409.6-409.6s184.32-409.6 409.6-409.6 409.6 184.32 409.6 409.6-184.32 409.6-409.6 409.6z m0-716.8c-168.96 0-307.2 138.24-307.2 307.2s138.24 307.2 307.2 307.2 307.2-138.24 307.2-307.2-138.24-307.2-307.2-307.2z" fill="#ffffff" p-id="14394"></path><path d="M675.84 578.56h-158.72c-30.72 0-51.2-20.48-51.2-51.2v-153.6c0-30.72 20.48-51.2 51.2-51.2s51.2 20.48 51.2 51.2v102.4h107.52c30.72 0 51.2 20.48 51.2 51.2 0 25.6-25.6 51.2-51.2 51.2z" fill="#ffffff" p-id="14395"></path></svg>