<?xml version="1.0" standalone="no"?><!DOCTYPE svg PUBLIC "-//W3C//DTD SVG 1.1//EN" "http://www.w3.org/Graphics/SVG/1.1/DTD/svg11.dtd"><svg t="1631603323610" class="icon" viewBox="0 0 1024 1024" version="1.1" xmlns="http://www.w3.org/2000/svg" p-id="2177" xmlns:xlink="http://www.w3.org/1999/xlink" width="200" height="200"><defs><style type="text/css"></style></defs><path d="M1004.071385 911.635692l-193.142154-193.063384a446.424615 446.424615 0 0 0 89.481846-268.603077C900.411077 201.452308 698.761846 0 450.087385 0 201.570462 0.118154 0 201.531077 0 450.087385c0 248.516923 201.531077 449.969231 450.205538 449.96923 112.876308 0 215.709538-41.787077 294.715077-110.276923l190.424616 190.464a48.443077 48.443077 0 0 0 68.726154 0c18.904615-19.022769 18.904615-49.742769 0-68.608z m-553.865847-108.504615c-194.835692 0-353.398154-158.326154-353.398153-353.161846 0-194.835692 158.562462-353.043692 353.398153-353.043693 194.835692 0 353.398154 158.444308 353.398154 353.161847 0 194.717538-158.562462 353.043692-353.398154 353.043692z" p-id="2178"></path></svg>