<?xml version="1.0" standalone="no"?><!DOCTYPE svg PUBLIC "-//W3C//DTD SVG 1.1//EN" "http://www.w3.org/Graphics/SVG/1.1/DTD/svg11.dtd"><svg t="1631607004153" class="icon" viewBox="0 0 1024 1024" version="1.1" xmlns="http://www.w3.org/2000/svg" p-id="3930" xmlns:xlink="http://www.w3.org/1999/xlink" width="200" height="200"><defs><style type="text/css"></style></defs><path d="M461.141333 119.552L202.624 251.52a117.333333 117.333333 0 0 0-63.957333 104.533333v312.576a117.333333 117.333333 0 0 0 63.36 104.149334l258.474666 133.973333a117.333333 117.333333 0 0 0 108.970667-0.554667l251.392-133.376a117.333333 117.333333 0 0 0 62.293333-103.637333V355.456a117.333333 117.333333 0 0 0-62.933333-103.978667l-251.392-131.413333a117.333333 117.333333 0 0 0-107.690667-0.512z m78.08 57.216l251.306667 131.413333c17.621333 9.216 28.672 27.434667 28.672 47.274667v313.728c0 19.754667-10.922667 37.845333-28.330667 47.104l-251.392 133.376a53.333333 53.333333 0 0 1-49.536 0.256l-258.474666-133.973333a53.333333 53.333333 0 0 1-28.8-47.36V356.053333c0-20.053333 11.221333-38.4 29.098666-47.488l258.474667-131.968a53.333333 53.333333 0 0 1 48.938667 0.213334z" fill="#000000" p-id="3931"></path><path d="M510.293333 368.725333a145.792 145.792 0 1 0 0 291.584 145.792 145.792 0 0 0 0-291.584z m0 64a81.792 81.792 0 1 1 0 163.584 81.792 81.792 0 0 1 0-163.584z" fill="#000000" p-id="3932"></path></svg>